<svg width="920" height="720" viewBox="0 0 920 720" fill="none" xmlns="http://www.w3.org/2000/svg">
  <defs>
    <linearGradient id="bg" x1="0" x2="920" y1="0" y2="720" gradientUnits="userSpaceOnUse">
      <stop stop-color="#1C1510"/>
      <stop offset="0.55" stop-color="#0B0A08"/>
      <stop offset="1" stop-color="#050505"/>
    </linearGradient>
    <linearGradient id="gold" x1="0" x2="1" y1="0" y2="1">
      <stop stop-color="#F7E2B7"/>
      <stop offset="1" stop-color="#C8902F"/>
    </linearGradient>
    <filter id="shadow" x="-20%" y="-20%" width="140%" height="140%">
      <feDropShadow dx="0" dy="28" stdDeviation="26" flood-color="#000" flood-opacity="0.45"/>
    </filter>
  </defs>

  <rect width="920" height="720" rx="44" fill="url(#bg)"/>
  <circle cx="730" cy="98" r="210" fill="#C8902F" opacity="0.12"/>
  <circle cx="142" cy="610" r="280" fill="#C8902F" opacity="0.08"/>

  <g opacity="0.18">
    <path d="M80 120H840" stroke="#F7E2B7" stroke-width="2"/>
    <path d="M80 210H840" stroke="#F7E2B7" stroke-width="2"/>
    <path d="M80 300H840" stroke="#F7E2B7" stroke-width="2"/>
    <path d="M80 390H840" stroke="#F7E2B7" stroke-width="2"/>
    <path d="M80 480H840" stroke="#F7E2B7" stroke-width="2"/>
  </g>

  <g filter="url(#shadow)">
    <rect x="130" y="96" width="420" height="310" rx="30" fill="#15120F" stroke="#C8902F" stroke-width="5"/>
    <rect x="165" y="132" width="350" height="238" rx="22" fill="#0C0B0A" stroke="#F7E2B7" stroke-opacity="0.28"/>
    <path d="M205 330C245 268 310 236 402 234" stroke="#C8902F" stroke-width="8" stroke-linecap="round" opacity="0.7"/>
    <circle cx="392" cy="208" r="42" fill="#C8902F" opacity="0.18"/>
  </g>

  <g filter="url(#shadow)">
    <rect x="312" y="398" width="245" height="58" rx="29" fill="url(#gold)"/>
    <rect x="358" y="338" width="150" height="96" rx="34" fill="#211A14" stroke="#C8902F" stroke-width="5"/>
    <path d="M378 456H490L514 590H354L378 456Z" fill="#12100E" stroke="#C8902F" stroke-width="6"/>
    <path d="M330 585H540" stroke="#F7E2B7" stroke-opacity="0.55" stroke-width="10" stroke-linecap="round"/>
    <path d="M434 434V585" stroke="#C8902F" stroke-width="10" stroke-linecap="round"/>
  </g>

  <g filter="url(#shadow)">
    <rect x="642" y="134" width="102" height="420" rx="51" fill="#0C0B0A" stroke="#F7E2B7" stroke-opacity="0.35" stroke-width="5"/>
    <rect x="674" y="164" width="38" height="360" rx="19" fill="#F7E2B7"/>
    <path d="M673 190L714 232" stroke="#B91C1C" stroke-width="20"/>
    <path d="M673 274L714 316" stroke="#B91C1C" stroke-width="20"/>
    <path d="M673 358L714 400" stroke="#B91C1C" stroke-width="20"/>
    <path d="M673 442L714 484" stroke="#B91C1C" stroke-width="20"/>
    <circle cx="693" cy="112" r="34" fill="#C8902F"/>
    <circle cx="693" cy="576" r="34" fill="#C8902F"/>
  </g>

  <g opacity="0.82">
    <path d="M166 552L246 632" stroke="#F7E2B7" stroke-width="10" stroke-linecap="round"/>
    <path d="M246 552L166 632" stroke="#F7E2B7" stroke-width="10" stroke-linecap="round"/>
    <circle cx="153" cy="539" r="18" fill="#0B0A08" stroke="#C8902F" stroke-width="8"/>
    <circle cx="258" cy="539" r="18" fill="#0B0A08" stroke="#C8902F" stroke-width="8"/>
  </g>

  <text x="60" y="66" fill="#F7E2B7" font-size="22" font-family="Arial, sans-serif" font-weight="700" letter-spacing="4">BARBEARIA PREMIUM</text>
</svg>
